<svg width="24" height="24" viewBox="0 0 24 24" fill="none" xmlns="http://www.w3.org/2000/svg">
<g clip-path="url(#clip0_621_3672)">
<path d="M7.55015 21.7502C16.6045 21.7502 21.5583 14.247 21.5583 7.74212C21.5583 7.53117 21.5536 7.31557 21.5442 7.10462C22.5079 6.40772 23.3395 5.54451 24 4.55554C23.1025 4.95484 22.1497 5.21562 21.1739 5.32896C22.2013 4.71316 22.9706 3.74571 23.3391 2.60601C22.3726 3.1788 21.3156 3.58285 20.2134 3.80086C19.4708 3.01181 18.489 2.48936 17.4197 2.31429C16.3504 2.13923 15.2532 2.32129 14.2978 2.83234C13.3423 3.34339 12.5818 4.15495 12.1339 5.14156C11.6859 6.12816 11.5754 7.23487 11.8195 8.29057C9.8625 8.19232 7.94795 7.68397 6.2 6.79837C4.45202 5.91272 2.9097 4.66968 1.67297 3.14976C1.0444 4.23349 0.852055 5.51592 1.13503 6.73632C1.418 7.95677 2.15507 9.02372 3.1964 9.72022C2.41463 9.69542 1.64998 9.48492 0.965625 9.10617V9.16711C0.964925 10.3044 1.3581 11.4068 2.07831 12.287C2.79852 13.1672 3.80133 13.7708 4.91625 13.9952C4.19206 14.1934 3.43198 14.2223 2.69484 14.0796C3.00945 15.0577 3.62157 15.9131 4.44577 16.5266C5.26995 17.14 6.2651 17.4809 7.29235 17.5015C5.5484 18.8714 3.39418 19.6144 1.17657 19.6109C0.783285 19.6103 0.390399 19.5862 0 19.5387C2.25286 20.984 4.87353 21.7516 7.55015 21.7502Z" fill="white" stroke="white"/>
</g>
<defs>
<clipPath id="clip0_621_3672">
<rect width="24" height="24" fill="white"/>
</clipPath>
</defs>
</svg>
